<?xml version="1.0" encoding="UTF-8" standalone="no"?>
<!DOCTYPE svg PUBLIC "-//W3C//DTD SVG 1.1//EN" "http://www.w3.org/Graphics/SVG/1.1/DTD/svg11.dtd">
<svg version="1.1" xmlns="http://www.w3.org/2000/svg" xmlns:xlink="http://www.w3.org/1999/xlink" preserveAspectRatio="xMidYMid meet" viewBox="0 0 640 640" width="640" height="640"><defs><path d="M99.09 0C91.59 0 85.51 6.08 85.51 13.58C85.51 57.2 85.51 406.22 85.51 449.85C85.51 455.34 88.82 460.29 93.89 462.39C95.57 463.09 97.34 463.43 99.08 463.43C102.62 463.43 106.09 462.05 108.69 459.45C117.74 450.4 163.02 405.12 244.51 323.63C326.01 405.12 371.28 450.4 380.34 459.45C384.22 463.33 390.06 464.49 395.13 462.39C400.21 460.29 403.51 455.34 403.51 449.85C403.51 406.22 403.51 57.2 403.51 13.58C403.51 6.08 397.44 0 389.94 0C331.77 0 128.17 0 99.09 0Z" id="aQpWtmRUb"></path><path d="M246.15 0L246.15 323.63L246.15 323.63C327.65 405.12 372.92 450.4 381.98 459.45C385.86 463.33 391.7 464.5 396.77 462.4C401.85 460.29 405.15 455.34 405.15 449.85C405.15 406.22 405.15 57.21 405.15 13.58C405.15 6.08 399.08 0 391.58 0C372.19 0 323.71 0 246.15 0Z" id="aZRooE1hW"></path><path d="M295.95 176.57C288.45 176.57 282.37 182.65 282.37 190.15C282.37 233.78 282.37 582.8 282.37 626.42C282.37 631.91 285.68 636.86 290.76 638.97C292.43 639.66 294.2 640 295.95 640C299.48 640 302.95 638.62 305.55 636.02C314.61 626.97 359.88 581.69 441.38 500.2C522.87 581.69 568.14 626.97 577.2 636.02C581.08 639.91 586.92 641.07 592 638.97C597.07 636.86 600.38 631.91 600.38 626.42C600.38 582.8 600.38 233.78 600.38 190.15C600.38 182.65 594.3 176.57 586.8 176.57C528.63 176.57 325.04 176.57 295.95 176.57Z" id="ekUMLIILe"></path><path d="M441.37 176.57L441.37 500.2L441.38 500.2C522.87 581.69 568.14 626.97 577.2 636.02C581.08 639.91 586.92 641.07 592 638.97C597.07 636.86 600.38 631.91 600.38 626.42C600.38 582.8 600.38 233.78 600.38 190.15C600.38 182.65 594.3 176.57 586.8 176.57C567.41 176.57 518.93 176.57 441.37 176.57Z" id="fauRpFCCp"></path><path d="M35.79 324.47C46.71 340.85 57.29 359.79 67.51 381.31C87.57 423.49 98.23 430.03 99.51 400.91C86.63 372.58 81.92 346.26 85.38 321.94C88.84 297.63 97.33 273.82 110.84 250.53C86.81 255.1 68.48 264.5 55.86 278.72C43.23 292.94 36.54 308.19 35.79 324.47Z" id="a1fD580qJI"></path><path d="M36.1 322.5C37.91 407.7 108.3 487.52 247.28 561.97L234.62 588.38L373.25 546.22L256.1 461.05L258.54 494.04C145.45 447.17 71.3 389.99 36.1 322.5" id="a2u3KeTQN0"></path><path d="M118.18 209.48C129.22 209.48 138.18 218.44 138.18 229.48C138.18 250.15 138.18 292.16 138.18 312.83C138.18 323.87 129.22 332.83 118.18 332.83C111.64 332.83 112.04 332.83 105.51 332.83C94.47 332.83 85.51 323.87 85.51 312.83C85.51 292.16 85.51 250.15 85.51 229.48C85.51 218.44 94.47 209.48 105.51 209.48C112.04 209.48 111.64 209.48 118.18 209.48Z" id="a3TJcrHmA5"></path></defs><g><g><g><g><use xlink:href="#aQpWtmRUb" opacity="1" fill="#4a4e56" fill-opacity="1"></use><g><use xlink:href="#aQpWtmRUb" opacity="1" fill-opacity="0" stroke="#000000" stroke-width="1" stroke-opacity="0"></use></g></g><g><use xlink:href="#aZRooE1hW" opacity="1" fill="#403f44" fill-opacity="1"></use><g><use xlink:href="#aZRooE1hW" opacity="1" fill-opacity="0" stroke="#000000" stroke-width="1" stroke-opacity="0"></use></g></g></g><g><g><use xlink:href="#ekUMLIILe" opacity="1" fill="#f84646" fill-opacity="1"></use><g><use xlink:href="#ekUMLIILe" opacity="1" fill-opacity="0" stroke="#000000" stroke-width="1" stroke-opacity="0"></use></g></g><g><use xlink:href="#fauRpFCCp" opacity="1" fill="#e01616" fill-opacity="1"></use><g><use xlink:href="#fauRpFCCp" opacity="1" fill-opacity="0" stroke="#000000" stroke-width="1" stroke-opacity="0"></use></g></g></g><g><g><use xlink:href="#a1fD580qJI" opacity="1" fill="#e69800" fill-opacity="1"></use><g><use xlink:href="#a1fD580qJI" opacity="1" fill-opacity="0" stroke="#000000" stroke-width="1" stroke-opacity="1"></use></g></g><g><use xlink:href="#a2u3KeTQN0" opacity="1" fill="#ffcc26" fill-opacity="1"></use><g><use xlink:href="#a2u3KeTQN0" opacity="1" fill-opacity="0" stroke="#000000" stroke-width="1" stroke-opacity="1"></use></g></g></g><g><use xlink:href="#a3TJcrHmA5" opacity="1" fill="#4a4e56" fill-opacity="1"></use></g></g></g></svg>